<mxfile host="app.diagrams.net" modified="2023-07-11T06:10:53.145Z" agent="Mozilla/5.0 (Macintosh; Intel Mac OS X 10_15_7) AppleWebKit/537.36 (KHTML, like Gecko) Chrome/114.0.0.0 Safari/537.36" etag="SBnVv3cOwamp64Wcqxr0" version="21.6.1" type="github">
  <diagram name="第 1 页" id="Stk5Jh3p3bf24eHYw-N9">
    <mxGraphModel dx="954" dy="509" grid="1" gridSize="10" guides="1" tooltips="1" connect="1" arrows="1" fold="1" page="1" pageScale="1" pageWidth="827" pageHeight="1169" math="0" shadow="0">
      <root>
        <mxCell id="0" />
        <mxCell id="1" parent="0" />
        <mxCell id="uc-kZInnrC8ktIU2tX6G-10" style="edgeStyle=orthogonalEdgeStyle;rounded=0;orthogonalLoop=1;jettySize=auto;html=1;exitX=1;exitY=0.5;exitDx=0;exitDy=0;entryX=0;entryY=0.5;entryDx=0;entryDy=0;strokeWidth=2;" edge="1" parent="1" source="uc-kZInnrC8ktIU2tX6G-1" target="uc-kZInnrC8ktIU2tX6G-4">
          <mxGeometry relative="1" as="geometry" />
        </mxCell>
        <mxCell id="uc-kZInnrC8ktIU2tX6G-1" value="" style="rounded=0;whiteSpace=wrap;html=1;dashed=1;" vertex="1" parent="1">
          <mxGeometry x="30" y="170" width="270" height="130" as="geometry" />
        </mxCell>
        <mxCell id="uc-kZInnrC8ktIU2tX6G-2" value="&lt;font style=&quot;font-size: 20px;&quot;&gt;Pylayer 封装&lt;/font&gt;" style="rounded=1;whiteSpace=wrap;html=1;fillColor=#f8cecc;strokeColor=#b85450;" vertex="1" parent="1">
          <mxGeometry x="85" y="217" width="160" height="60" as="geometry" />
        </mxCell>
        <mxCell id="uc-kZInnrC8ktIU2tX6G-3" value="&lt;font style=&quot;font-size: 20px;&quot;&gt;Python 端&lt;/font&gt;" style="text;html=1;strokeColor=none;fillColor=none;align=center;verticalAlign=middle;whiteSpace=wrap;rounded=0;" vertex="1" parent="1">
          <mxGeometry x="95" y="173" width="140" height="30" as="geometry" />
        </mxCell>
        <mxCell id="uc-kZInnrC8ktIU2tX6G-14" style="edgeStyle=orthogonalEdgeStyle;rounded=0;orthogonalLoop=1;jettySize=auto;html=1;exitX=1;exitY=0.5;exitDx=0;exitDy=0;entryX=0;entryY=0.5;entryDx=0;entryDy=0;strokeWidth=2;" edge="1" parent="1" source="uc-kZInnrC8ktIU2tX6G-4" target="uc-kZInnrC8ktIU2tX6G-11">
          <mxGeometry relative="1" as="geometry" />
        </mxCell>
        <mxCell id="uc-kZInnrC8ktIU2tX6G-4" value="" style="rounded=0;whiteSpace=wrap;html=1;dashed=1;" vertex="1" parent="1">
          <mxGeometry x="360" y="60" width="270" height="350" as="geometry" />
        </mxCell>
        <mxCell id="uc-kZInnrC8ktIU2tX6G-5" value="&lt;font style=&quot;font-size: 20px;&quot;&gt;C++ class 绑定&lt;/font&gt;" style="rounded=1;whiteSpace=wrap;html=1;fillColor=#fff2cc;strokeColor=#d6b656;" vertex="1" parent="1">
          <mxGeometry x="415" y="110" width="160" height="50" as="geometry" />
        </mxCell>
        <mxCell id="uc-kZInnrC8ktIU2tX6G-6" value="&lt;font style=&quot;font-size: 20px;&quot;&gt;自定义扩展&lt;/font&gt;" style="text;html=1;strokeColor=none;fillColor=none;align=center;verticalAlign=middle;whiteSpace=wrap;rounded=0;" vertex="1" parent="1">
          <mxGeometry x="425" y="70" width="140" height="30" as="geometry" />
        </mxCell>
        <mxCell id="uc-kZInnrC8ktIU2tX6G-7" value="&lt;font style=&quot;font-size: 20px;&quot;&gt;自定义算子函数&lt;/font&gt;" style="rounded=1;whiteSpace=wrap;html=1;fillColor=#fff2cc;strokeColor=#d6b656;" vertex="1" parent="1">
          <mxGeometry x="415" y="180" width="160" height="50" as="geometry" />
        </mxCell>
        <mxCell id="uc-kZInnrC8ktIU2tX6G-8" value="&lt;font style=&quot;font-size: 20px;&quot;&gt;无张量输入函数&lt;/font&gt;" style="rounded=1;whiteSpace=wrap;html=1;fillColor=#fff2cc;strokeColor=#d6b656;" vertex="1" parent="1">
          <mxGeometry x="414" y="250" width="160" height="50" as="geometry" />
        </mxCell>
        <mxCell id="uc-kZInnrC8ktIU2tX6G-9" value="&lt;span style=&quot;font-size: 20px;&quot;&gt;optional 输入&lt;/span&gt;" style="rounded=1;whiteSpace=wrap;html=1;fillColor=#fff2cc;strokeColor=#d6b656;" vertex="1" parent="1">
          <mxGeometry x="414" y="320" width="160" height="50" as="geometry" />
        </mxCell>
        <mxCell id="uc-kZInnrC8ktIU2tX6G-11" value="" style="rounded=0;whiteSpace=wrap;html=1;dashed=1;" vertex="1" parent="1">
          <mxGeometry x="680" y="170" width="270" height="130" as="geometry" />
        </mxCell>
        <mxCell id="uc-kZInnrC8ktIU2tX6G-12" value="&lt;font style=&quot;font-size: 20px;&quot;&gt;实现运算逻辑&lt;/font&gt;" style="rounded=1;whiteSpace=wrap;html=1;fillColor=#dae8fc;strokeColor=#6c8ebf;" vertex="1" parent="1">
          <mxGeometry x="735" y="217" width="160" height="60" as="geometry" />
        </mxCell>
        <mxCell id="uc-kZInnrC8ktIU2tX6G-13" value="&lt;font style=&quot;font-size: 20px;&quot;&gt;C++ 端&lt;/font&gt;" style="text;html=1;strokeColor=none;fillColor=none;align=center;verticalAlign=middle;whiteSpace=wrap;rounded=0;" vertex="1" parent="1">
          <mxGeometry x="745" y="173" width="140" height="30" as="geometry" />
        </mxCell>
      </root>
    </mxGraphModel>
  </diagram>
</mxfile>
